<?xml version="1.0" encoding="iso-8859-1"?>
<!-- Generator: Adobe Illustrator 19.0.0, SVG Export Plug-In . SVG Version: 6.00 Build 0)  -->
<svg version="1.1" id="Layer_1" xmlns="http://www.w3.org/2000/svg" xmlns:xlink="http://www.w3.org/1999/xlink" x="0px" y="0px"
	 viewBox="0 0 392.533 392.533" style="enable-background:new 0 0 392.533 392.533;" xml:space="preserve">
<path style="fill:#cc0065;" d="M31.677,327.24c-6.012,1.875-10.149,7.24-10.149,13.511v29.931h101.366v-29.931
	c0-6.271-4.073-11.636-10.149-13.511C86.497,319.224,57.988,319.224,31.677,327.24z"/>
<path style="fill:#56ACE0;" d="M72.21,224.323c-11.184,0-20.299,9.115-20.299,20.299c0,11.184,9.115,20.299,20.299,20.299
	s20.299-9.115,20.299-20.299C92.509,233.438,83.394,224.323,72.21,224.323z"/>
<path style="fill:#FFFFFF;" d="M236.671,124.768c-26.376-8.016-54.885-8.016-81.196,0c-6.012,1.875-10.149,7.24-10.149,13.511
	v29.931h101.366v-29.931C246.691,132.073,242.683,126.642,236.671,124.768z"/>
<path style="fill:#cc0065;" d="M216.242,42.085c0-11.184-9.115-20.299-20.299-20.299c-11.184,0-20.299,9.115-20.299,20.299
	s9.115,20.299,20.299,20.299C207.192,62.384,216.242,53.333,216.242,42.085z"/>
<path style="fill:#56ACE0;" d="M360.339,327.24c-26.376-8.016-54.885-8.016-81.196,0c-6.012,1.875-10.15,7.24-10.15,13.511v29.931
	H370.36v-29.931C370.489,334.61,366.416,329.115,360.339,327.24z"/>
<path style="fill:#FFFFFF;" d="M340.04,244.622c0-11.184-9.115-20.299-20.299-20.299c-11.184,0-20.299,9.115-20.299,20.299
	c0,11.184,9.115,20.299,20.299,20.299C330.925,264.986,340.04,255.741,340.04,244.622z"/>
<g>
	<path style="fill:#194F82;" d="M72.21,286.707c23.208,0,42.085-18.877,42.085-42.085s-18.877-42.085-42.085-42.085
		s-42.085,18.877-42.085,42.085C30.125,267.83,49.067,286.707,72.21,286.707z M72.21,224.323c11.184,0,20.299,9.115,20.299,20.299
		c0,11.184-9.115,20.299-20.299,20.299s-20.234-9.18-20.234-20.299C51.976,233.438,61.026,224.323,72.21,224.323z"/>
	<path style="fill:#194F82;" d="M196.008,84.234c23.208,0,42.085-18.877,42.085-42.085S219.216,0,196.008,0
		s-42.085,18.877-42.085,42.085S172.735,84.234,196.008,84.234z M196.008,21.786c11.184,0,20.299,9.115,20.299,20.299
		s-9.115,20.364-20.299,20.364c-11.184,0-20.299-9.115-20.299-20.299S184.824,21.786,196.008,21.786z"/>
	<path style="fill:#194F82;" d="M366.804,306.489c-30.772-9.438-63.224-9.438-93.996,0c-13.382,4.073-22.949,15.192-25.018,28.638
		h-40.792V189.996h50.683c6.012,0,10.925-4.848,10.925-10.925v-40.792c0-15.903-10.279-29.737-25.471-34.392
		c-30.772-9.438-63.224-9.438-93.996,0c-15.321,4.655-25.471,18.489-25.471,34.392v40.792c0,6.012,4.848,10.925,10.925,10.925
		h50.683v145.067h-40.792c-2.133-13.446-11.636-24.566-25.018-28.638c-30.772-9.438-63.224-9.438-93.931,0
		c-15.321,4.655-25.471,18.489-25.471,34.392v40.792c0,6.012,4.848,10.925,10.925,10.925h123.281
		c6.012,0,10.925-4.848,10.925-10.925v-24.76h102.465v24.76c0,6.012,4.848,10.925,10.925,10.925h122.958
		c6.012,0,10.925-4.848,10.925-10.925v-40.792C392.275,324.913,381.996,311.079,366.804,306.489z M122.958,370.747H21.527v-29.931
		c0-6.271,4.008-11.636,10.149-13.511c26.57-8.145,54.626-8.145,81.196,0c6.012,1.875,10.149,7.24,10.149,13.511v29.931H122.958z
		 M145.325,168.21v-29.931c0-6.271,4.073-11.636,10.149-13.511c26.57-8.145,54.626-8.145,81.196,0
		c6.012,1.875,10.15,7.24,10.15,13.511v29.931H145.325z M370.489,370.747h-101.43v-29.931c0-6.271,4.073-11.636,10.15-13.511
		c26.57-8.145,54.626-8.145,81.196,0c6.012,1.875,10.15,7.24,10.15,13.511L370.489,370.747L370.489,370.747z"/>
	<path style="fill:#194F82;" d="M319.741,286.707c23.208,0,42.085-18.877,42.085-42.085s-18.877-42.085-42.085-42.085
		s-42.085,18.877-42.085,42.085S296.533,286.707,319.741,286.707z M319.741,224.323c11.184,0,20.299,9.115,20.299,20.299
		c0,11.184-9.115,20.299-20.299,20.299c-11.184,0-20.299-9.115-20.299-20.299C299.507,233.438,308.622,224.323,319.741,224.323z"/>
</g>
<g>
</g>
<g>
</g>
<g>
</g>
<g>
</g>
<g>
</g>
<g>
</g>
<g>
</g>
<g>
</g>
<g>
</g>
<g>
</g>
<g>
</g>
<g>
</g>
<g>
</g>
<g>
</g>
<g>
</g>
</svg>
