<?xml version="1.0" encoding="UTF-8"?>
<svg version="1.1" viewBox="140 40 420 500" xmlns="http://www.w3.org/2000/svg" xmlns:xlink="http://www.w3.org/1999/xlink">
 <g fill = "#fff">
   <text class="label" style = "font-family:Roboto;font-size:55;fill:#cc0065" id="title" x="450" y="530">CLD</text>
  <path d="m366.24 90.719v-4.4805c-0.55859-8.3984-6.7188-13.441-14-14.559v-24.078c0-1.1211-1.1211-2.2383-2.2383-2.2383-1.1211 0-2.2383 1.1211-2.2383 2.2383v24.078c-7.2812 0.55859-13.441 6.1602-14 14.559v4.4805c-105.28 8.3984-188.72 96.879-188.72 203.84 0 113.12 91.84 204.96 204.96 204.96s204.96-91.84 204.96-204.96c-0.003906-106.96-83.445-195.44-188.73-203.84zm184.24 204.4c0 11.762-1.1211 23.52-2.8008 34.719h-70v-12.32c0-1.1211-1.1211-2.2383-2.2383-2.2383h-1.1211l-8.9609-3.9219v-16.238c0-1.1211-1.1211-2.2383-2.2383-2.2383h-28.559l-0.003906-12.883c0-1.1211-0.55859-1.6797-1.6797-2.2383l-2.8008-0.55859v-1.1211-10.078c0-1.1211-1.1211-2.2383-2.2383-2.2383-1.1211 0-2.2383 1.1211-2.2383 2.2383v10.078l-6.1602-1.1211v-0.55859-45.359l3.3594 3.3594c0.55859 0.55859 1.1211 0.55859 1.6797 0.55859 0.55859 0 1.1211 0 1.6797-0.55859s0.55859-2.2383 0-2.8008l-9.5195-10.078c-0.55859-34.16-17.359-64.961-43.121-77.281v-6.1602c0-1.1211-1.1211-2.2383-2.2383-2.2383h-2.2383v-7.8398c0-1.1211-1.1211-2.2383-2.2383-2.2383h-2.2383l-0.007812-28.566c104.72 7.8398 185.92 94.641 185.92 199.92zm-4.4805 42.559h-68.32v-3.9219h69.441c-0.5625 1.1211-0.5625 2.2422-1.1211 3.9219zm-191.52 140h-8.3984v-20.719c0-2.8008 1.6797-5.6016 4.4805-5.6016 2.2383 0 3.9219 3.3594 3.9219 5.6016-0.5625 1.1172-0.003906 11.758-0.003906 20.719zm7.8398 3.9219v3.9219h-22.398v-3.9219zm-3.9219-3.9219v-20.16c0-2.2383-1.1211-4.4805-2.2383-6.1602-1.6797-1.6797-3.3594-3.3594-5.6016-3.3594-5.0391 0-8.3984 3.3594-8.3984 9.5195v3.9219 16.238h-2.2383c0-1.1211-1.1211-2.2383-2.2383-2.2383h-2.2383v-36.398h30.238v36.398h-2.2383c-1.1211 0-2.2383 1.1211-2.2383 2.2383zm-77.277 5.6016v-3.9219h12.32v6.1602h-6.1602c-2.2422-0.55859-4.4805-1.1211-6.1602-2.2383zm38.641-121.52h2.2383v56.559h-6.1602v-20.16c0-1.1211-1.1211-2.2383-2.2383-2.2383h-12.32c-1.1211 0-2.2383 1.1211-2.2383 2.2383v20.16h-6.1602l-0.003906-56.559h2.2383c1.1211 0 2.2383-1.1211 2.2383-2.2383v-10.078h20.16v10.078c0.003906 1.6758 1.125 2.2383 2.2461 2.2383zm1.6797 61.039v12.32h-28.559v-12.32zm-17.922-3.9219v-18.48h7.8398v18.48zm-10.078-61.039h-12.32v-7.8398h12.32zm-4.4805 3.9219v113.68h-3.9219v-113.68zm22.961 115.92h-8.3984v-20.719c0-2.8008 1.6797-5.6016 4.4805-5.6016 2.2383 0 3.9219 3.3594 3.9219 5.6016-0.56641 1.1172-0.003906 11.758-0.003906 20.719zm5.5977 3.9219v3.9219h-20.16v-3.9219zm-1.6797-3.9219v-20.16c0-2.2383-1.1211-4.4805-2.2383-6.1602-1.6797-1.6797-3.3594-3.3594-5.6016-3.3594-5.0391 0-8.3984 3.3594-8.3984 9.5195v3.9219 16.238h-2.2383c0-1.1211-1.1211-2.2383-2.2383-2.2383h-2.2383v-36.398h28.559v36.398h-2.2383c-1.1211 0-2.2383 1.1211-2.2383 2.2383zm5.6016 1.6797h14v6.1602h-14zm4.4805-3.918v-113.68h6.1602v113.68zm-4.4805-117.6v-7.8398h14v7.8398zm42.559 3.9219h2.2383v56.559h-7.8398v-20.16c0-1.1211-1.1211-2.2383-2.2383-2.2383h-12.32c-1.1211 0-2.2383 1.1211-2.2383 2.2383v20.16h-6.1602v-56.559h2.2383c1.1211 0 2.2383-1.1211 2.2383-2.2383v-10.078h22.398v10.078c0.003906 1.6758 0.5625 2.2383 1.6836 2.2383zm2.2383 61.039v12.32h-30.238v-12.32zm-20.16-3.9219v-18.48h7.8398v18.48zm20.16 60.48h14v6.1602h-14zm3.9219-3.918v-113.68h6.1602v113.68zm-3.9219-117.6v-7.8398h14v7.8398zm40.32 3.9219h2.2383v56.559h-6.1602v-20.16c0-1.1211-1.1211-2.2383-2.2383-2.2383h-12.32c-1.1211 0-2.2383 1.1211-2.2383 2.2383v20.16h-6.1602v-56.559h2.2383c1.1211 0 2.2383-1.1211 2.2383-2.2383v-10.078h20.16v10.078c0.5625 1.6758 1.125 2.2383 2.2422 2.2383zm2.2422 61.039v12.32h-28.559v-12.32zm-18.48-3.9219v-18.48h7.8398v18.48zm-10.082 20.16h28.559v36.398h-2.2383c-1.1211 0-2.2383 1.1211-2.2383 2.2383h-1.6797v-20.16c0-3.9219-3.3594-9.5195-8.3984-9.5195-5.0391 0-8.3984 3.3594-8.3984 9.5195v20.16h-1.6797c0-1.1211-1.1211-2.2383-2.2383-2.2383h-2.2383l-0.007812-36.398zm18.48 38.641h-8.3984c0-8.3984 0.55859-20.16 0.55859-20.719 0-2.8008 1.6797-5.6016 4.4805-5.6016 2.2383 0 3.9219 3.3594 3.9219 5.6016-0.5625 1.1172-0.5625 11.758-0.5625 20.719zm-14 3.9219h20.16v3.9219h-20.16zm24.082 3.918v-6.1602h14v2.2383c-3.3594 1.1211-6.7188 2.2383-10.078 3.3594l-3.9219 0.003907zm0-127.68v-7.8398h14v7.8398zm7.8398 3.9219v113.68h-3.9219v-113.68zm10.641 115.92c0-1.1211-1.1211-2.2383-2.2383-2.2383h-3.9219v-113.68h3.9219c1.1211 0 2.2383-1.1211 2.2383-2.2383v-10.078h20.16v10.078c0 1.1211 1.1211 2.2383 2.2383 2.2383h2.2383v106.4c-5.6016 3.3594-11.762 6.7188-17.922 9.5195zm-202.72-132.16v-12.32h249.2v12.32zm239.12 4.4805v7.8398h-12.32v-7.8398zm-212.8 0v7.8398h-12.32v-7.8398zm-26.32-20.719v-10.082h249.2v10.078zm124.88-63.281 102.48 43.68 11.199 5.0391 0.55859 0.55859-229.6 0.003906zm-113.12 43.68v-12.879h28.559zm126-213.36v28.559h-3.9219v-28.559zm-8.3984 0v28.559h-7.8398v-28.559zm-16.242 0h3.9219v28.559h-3.9219zm28.559 32.48v6.1602h-32.48l0.003907-6.1602zm3.9219 10.078v2.2383h-40.32v-2.2383zm-36.961 6.1602h33.602c5.0391 12.879 7.8398 30.238 9.5195 49.281h-0.55859l-0.55859 1.1211h-10.641c-1.1211-7.8398-6.7188-12.879-14.559-12.879s-14 5.0391-14.559 12.879h-10.641l-0.55859-1.1211h-0.55859c1.1133-19.039 4.4727-36.398 9.5117-49.281zm75.602 141.68-33.039-14h12.879l12.32 2.8008 5.6016 1.1211h0.55859l24.078 5.0391v10.078zm20.16 8.9609h-1.1211zm-79.52-69.441c-6.7188 0-11.762 5.6016-11.762 11.762v22.961 5.0391l-5.0391 2.8008h-11.199v-46.48c0.55859 0 0.55859 0 1.1211-0.55859l27.441-13.441 26.879 12.879c0.55859 0.55859 0.55859 0.55859 1.1211 0.55859l-0.003906 47.043h-12.32l-5.6016-2.2383v-6.7188c0-16.801 0.55859-21.281 0.55859-21.281-0.55859-6.1641-5.0352-12.324-11.195-12.324zm-7.8398 11.762c0-4.4805 3.3594-7.8398 7.8398-7.8398 4.4805 0 6.7188 3.9219 6.7188 7.8398 0 0.55859 0.55859 12.32 0.55859 21.281l0.55859 5.0391-7.2773-2.8008h-0.55859-0.55859l-6.7188 2.8008v-2.8008c-0.5625-8.9609-0.5625-22.398-0.5625-23.52zm34.719-38.078c0 3.9219 0.55859 8.3984 0.55859 12.879v3.9219l-25.762-12.32c-0.55859-0.55859-1.1211-0.55859-1.6797 0l-26.32 12.879v-4.4805c0-4.4805 0-8.3984 0.55859-12.879h16.238v-2.2383c0-6.7188 3.9219-10.641 10.078-10.641 6.1602 0 10.078 3.9219 10.078 10.641v2.2383zm17.918 70c0-10.078 0.55859-25.199 0.55859-25.762 0-3.3594 2.8008-5.6016 5.6016-5.6016 3.3594 0 5.0391 2.8008 5.0391 5.6016v5.0391 23.52l-3.3594-0.55859zm22.402-43.684v48.16l-7.8398-1.6797v-24.078-4.4805c0-6.1602-3.9219-9.5195-8.9609-9.5195-5.0391 0-9.5195 3.3594-10.078 9.5195-0.55859 2.2383-0.55859 19.039-0.55859 25.199l-0.003906-0.55859h-0.55859-6.1602v-47.602l24.641-5.6016 10.078 10.641c0-0.55859-0.55859-0.55859-0.55859 0zm-7.8398-15.117c-0.55859-0.55859-1.1211-0.55859-1.6797-0.55859l-26.32 6.1602v-4.4805c0-4.4805 0-8.3984-0.55859-12.879l11.762 2.8008v-2.8008c0-2.2383 0.55859-4.4805 2.2383-5.6016 0.55859-0.55859 1.6797-0.55859 2.8008 0 2.8008 1.1211 5.6016 5.6016 5.6016 11.199v1.1211l9.5195 3.9219 0.55859-1.1211c0 2.2383 0.55859 3.9219 0.55859 6.1602zm-1.6797-7.2812c-0.55859-6.1602-3.9219-11.762-8.3984-13.441-2.2383-1.1211-4.4805-0.55859-6.1602 0.55859-1.6797 1.1211-2.8008 3.3594-3.3594 6.1602l-8.9609-2.2383c-1.1211-19.039-3.9219-35.84-8.9609-49.281 21.281 9.5195 36.961 32.48 40.879 59.922zm-87.359-8.3984-8.9609 2.2383c-0.55859-2.8008-1.6797-5.0391-3.3594-6.1602-1.6797-1.1211-3.9219-1.6797-6.1602-0.55859-4.4805 1.6797-7.8398 7.2812-8.3984 13.441l-5.0391 2.2383c3.9219-27.441 19.602-50.398 40.879-59.922-5.043 12.32-7.8438 29.68-8.9609 48.723zm-22.402 11.199v-1.1211c0-5.0391 2.8008-10.078 5.6016-11.199 1.1211-0.55859 1.6797-0.55859 2.2383 0 1.1211 0.55859 2.2383 2.8008 2.2383 5.6016v2.8008l11.762-2.8008c0 3.9219-0.55859 8.3984-0.55859 12.879v4.4805l-26.32-6.1602c-0.55859 0-1.6797 0-1.6797 0.55859l-4.4805 4.4805c0-2.2383 0-3.9219 0.55859-6.1602l0.55859 1.1211zm-3.918 8.3984 24.641 5.6016-0.003906 48.16h-6.1602-0.55859l-5.6016 1.1211v-22.398-3.3594c0-6.1602-3.9219-9.5195-8.9609-9.5195s-9.5195 3.3594-10.078 9.5195c-0.55859 3.9219-0.55859 24.641-0.55859 30.238l-2.8008-0.003906v-48.719-0.55859zm8.3984 28.562v3.3594c0 5.0391 0 15.68-0.55859 22.961l-10.641 2.2383c0-10.078 0.55859-28 0.55859-29.121 0-3.3594 2.8008-5.6016 5.6016-5.6016 3.3594 0.5625 5.0391 3.3633 5.0391 6.1641zm9.5195 29.117h11.199l-34.16 14.562-19.039 4.4805v-10.078zm121.52 24.641h28.559v12.879l-8.3984-3.3594zm-82.879-221.76c6.1602 0 11.199 5.0391 11.762 10.641h-24.078c1.1172-5.6016 6.1562-10.641 12.316-10.641zm-12.32 14.559h24.078v2.2383h-24.078zm-3.918 5.0391v29.68h-2.2383c-1.1211 0-2.2383 1.1211-2.2383 2.2383v7.8398l-1.6836 0.003907c-1.1211 0-2.2383 1.1211-2.2383 2.2383v6.1602c-25.762 12.32-43.121 42.559-43.121 76.719l-9.5234 9.5234c-0.55859 0.55859-0.55859 2.2383 0 2.8008 0.55859 0.55859 1.1211 0.55859 1.6797 0.55859 0.55859 0 1.1211 0 1.6797-0.55859l3.3594-3.3594v45.359 0.55859l-6.1602 1.1211v-10.078c0-1.1211-1.1211-2.2383-2.2383-2.2383-1.1211 0-2.2383 1.1211-2.2383 2.2383v10.078 1.1211l-2.8008 0.55859c-1.1211 0-1.6797 1.1211-1.6797 2.2383v12.879h-30.238c-1.1211 0-2.2383 1.1211-2.2383 2.2383v16.801l-8.3984 3.3594h-1.6797c-1.1211 0-2.2383 1.1211-2.2383 2.2383v12.32l-67.207 0.003906c-2.2383-11.199-2.8008-22.961-2.8008-34.719 0-105.28 81.199-192.08 184.24-199.92zm-180.88 238.56h67.199v3.9219l-66.078-0.003906c-0.55859-1.6797-0.55859-2.8008-1.1211-3.918zm67.199 7.8398v6.1602c0 1.1211 1.1211 2.2383 2.2383 2.2383h12.32v2.2383h-77.277c-1.1211-3.3594-1.6797-6.7188-2.8008-10.078h65.52zm-32.477 71.68c-2.8008-3.3594-5.0391-6.7188-7.2812-10.641h7.2812zm2.2383-15.121h-11.762c-7.8398-13.441-14.559-27.441-19.039-42.559h75.602v3.9219c0 1.1211 1.1211 2.2383 2.2383 2.2383h2.2383v72.801h-32.48c-5.0391-5.0391-10.078-10.641-14.559-16.238v-17.922c0-1.1211-1.1172-2.2422-2.2383-2.2422zm48.719 40.879v22.961c-5.0391-3.3594-9.5195-6.7188-14-10.641v-0.55859c0-3.9219-3.3594-8.9609-8.3984-8.9609-0.55859 0-1.6797 0-2.2383 0.55859-1.1211-1.1211-2.8008-2.2383-3.9219-3.3594zm3.9219-77.277h3.9219v105.28c-1.1211-0.55859-2.8008-1.6797-3.9219-2.8008zm8.3984 0h2.2383c1.1211 0 2.2383-1.1211 2.2383-2.2383v-10.078h22.398v10.078c0 1.1211 1.1211 2.2383 2.2383 2.2383h2.2383v113.68h-2.2383c-1.1211 0-2.2383 1.1211-2.2383 2.2383h-10.641c-5.6016-2.2383-10.641-5.0391-15.68-7.8398l0.007812-108.08zm26.32 119.84c-0.55859 0.55859-0.55859 0-1.1211 0zm72.801 14c-16.801 0-33.602-2.2383-49.281-6.1602h98c-15.117 3.918-31.918 6.1602-48.719 6.1602zm105.28-133.84h3.9219v101.36c-1.1211 1.1211-2.8008 1.6797-3.9219 2.8008zm30.797 80.637h-2.2383c-5.0391 0-7.8398 5.0391-8.3984 8.9609-3.9219 3.3594-7.8398 6.1602-12.32 8.9609v-21.281h26.32c-1.1211 1.1211-2.2422 2.2422-3.3633 3.3594zm26.32-29.117v-10.641h7.2812c-2.8008 3.3594-5.0391 6.7188-7.2812 10.641zm9.5234-15.121h-11.762c-1.1211 0-2.2383 1.1211-2.2383 2.2383v17.922c-4.4805 5.6016-9.5195 11.199-14.559 16.238h-30.238v-72.801h2.2383c1.1211 0 2.2383-1.1211 2.2383-2.2383v-3.9219h73.922c-5.043 15.121-11.762 29.684-19.602 42.562zm20.719-46.48h-75.039v-2.2383h7.8398c1.1211 0 2.2383-1.1211 2.2383-2.2383v-5.6016h67.762c-1.1211 3.3594-1.6797 6.7188-2.8008 10.078z"/>
 </g>
</svg>
